<?xml version="1.0" encoding="UTF-8"?><svg id="a" xmlns="http://www.w3.org/2000/svg" width="975.04" height="759.78" viewBox="0 0 975.04 759.78"><g><path d="M268.11,320.58s-9.31-31.13,45.69-52.06c55-20.93,40.46-67.94,40.46-67.94l12.19-30.57,8.62-40.34s41.13-25.85,43.48-27.03,27.26-24.93,28.13-27.15-21.69-32.31-21.69-32.31l-1.91-29.46S151.38,68.68,135.71,350.47l132.4-29.9Z" fill="#f3f3f3"/><path d="M608.17,250.3v-61.09l34.27-32.25,56.41-8.59,22.62-15.57,4.41-28.5,15.14-11.76-38.12-27.72-32.45,19.32-3.91,37.5-23.8,12.34-26.15-6.76-49.65,30.34-25.85-20.65-10.58-23.5-39.66-16.86-17.63-44.83,49.95-41.88,83.96,11.82,60.18,23.24,47.72,23.41,32.91,26.01,54.06,61.99s-71.52,57.26-154.25,81.75l-39.55,12.25Z" fill="#f3f3f3"/><path d="M286.34,561.46l126.73-22.92,99.79-9.99,91.66-7.05-21.45,30.85s-5.29,51.19-5.29,53.21-24.09,47.27-24.09,48.15-33.2,32.32-33.2,32.32l-14.1,25.56-45.83-5.58-47.49-40.25s-41.24-42.9-42.71-42.9-45.54-9.32-45.54-9.32l-35.84-17.71-2.64-34.38Z" fill="#f3f3f3"/><path d="M304.36,692.89s-55.56,46.45-150.78,27.88c0,0-63.04-2.03-75.9-51.73,0,0-4.22-18.25,0-29.52,4.22-11.28,8.65-18.92,8.65-18.92l-6.82-57.67-24.89-49.49-5.74-34.23s-15.36,4.31-25.31-5.71S-.21,445.99,10.56,423.08c10.77-22.92,18.18-50.2,101.15-65.94,82.97-15.74,341.29-69.7,341.29-69.7,0,0,180.63-31.49,225.28-60.46,0,0,105.43-47.73,120.88-66.1,15.45-18.37,23.1-45.72,23.1-45.72l-12.06-30.85-17.6-8.15-25.9-4.16s-21.46,2.78-22.36,2.98-30.8,2.86-30.8,2.86l-23.21-15.87,34.84-17.83,71.53-12.58s42.73,5.8,44.52,6.3,31.97,13.95,31.97,13.95l14,18.69s5.45,16.49,5.39,17.33-5.39,18.51-5.39,18.51l2.26,25.77,13.9,40.63,8.81,21.44s9.7,18.22,10.58,20.27,7.94,12.6,9.11,15.74,9.4,17.46,9.4,17.46l8.3,3.73,14.03,17.13,3.42,12.58,3.57,17.39s2.42,21.74,1.83,23.5-7.21,15.12-8.42,17.89c-1.21,2.77-2.16,11.79-2.75,12.96s-42.44,40.19-42.44,40.19c0,0-36.01,14.46-37.48,16.22s-33.49,9.99-35.26,10.87-30.56,7.93-38.49,8.52c-7.93,.59-300.44,55.25-300.44,55.25l-119.42,24.12-55.45,14.16-118.56,37.22-43.09,27.03-23.14,20.92-5.53,22.56,5.6,19.39s9.13,12.36,11.15,14.17,15.38,10.83,15.38,10.83l23.28,7.26,32.66-1.9,29.23-9.01,19.11,2.44,26.05,19.78Z" fill="#f3f3f3"/><circle cx="503.47" cy="379.89" r="372.84" fill="#f3f3f3"/></g><g><path d="M692.63,60.6c-.3-.46,.29-1.44,1.7-2.89,.71-.73,1.62-1.57,2.72-2.53,1.12-.94,2.39-2.08,3.95-3.13,3.1-2.15,6.91-4.84,11.67-7.37,1.18-.65,2.4-1.33,3.66-2.03,1.27-.7,2.63-1.28,4-1.95,2.78-1.29,5.68-2.76,8.87-3.94,12.6-5.15,28.41-9.63,46.44-11.74,2.26-.19,4.55-.38,6.86-.58,1.16-.09,2.32-.19,3.5-.28,1.18-.03,2.36-.07,3.55-.1,2.38-.05,4.78-.15,7.21-.15,2.43,.07,4.88,.14,7.35,.22,2.48,.02,4.96,.31,7.47,.51,2.51,.24,5.05,.38,7.58,.8,2.53,.37,5.09,.74,7.66,1.12,2.55,.52,5.11,1.04,7.69,1.56,2.59,.47,5.11,1.21,7.62,1.87,2.51,.69,5.01,1.3,7.46,2.11,4.91,1.55,9.77,3.36,14.45,5.56,4.68,2.2,9.18,4.78,13.31,7.85,4.15,3.09,7.89,6.6,11.03,10.52,3.15,3.91,5.73,8.21,7.54,12.75,1.83,4.53,2.78,9.32,3.04,13.82,.44,9.08-1.71,17.07-4.51,23.69-2.84,6.67-6.45,11.98-9.82,16.28-3.4,4.31-6.62,7.66-9.35,10.27-5.48,5.18-8.96,7.52-9.78,6.83-.86-.72,1.1-4.48,4.99-10.73,1.92-3.13,4.31-6.89,6.76-11.3,2.44-4.41,4.94-9.49,6.67-15.24,1.73-5.74,2.74-12.24,1.93-18.7-.44-3.23-1.29-6.37-2.76-9.44-1.44-3.08-3.44-6.06-5.91-8.84-2.45-2.79-5.4-5.34-8.66-7.6-3.3-2.28-6.98-4.27-10.94-6.02-3.96-1.76-8.22-3.27-12.68-4.63-2.23-.71-4.53-1.25-6.83-1.86-2.3-.59-4.6-1.27-6.97-1.7-2.36-.49-4.7-.97-7.03-1.45-2.35-.36-4.69-.72-7.01-1.08-2.31-.42-4.64-.57-6.94-.83-2.3-.22-4.58-.54-6.86-.61-2.28-.13-4.53-.25-6.76-.37-2.24-.06-4.45-.03-6.65-.06-1.1,0-2.19-.02-3.28-.03-1.09,.05-2.16,.09-3.24,.14-2.15,.09-4.27,.17-6.37,.26-16.77,1.2-31.74,4.25-44.07,7.78-24.69,7.16-38.95,15.35-40.27,13.24Z" fill="#0d0d0d"/><path d="M892.4,91.9c1.12,.42,.21,4.92-.22,12.76-.15,3.93-.24,8.7,.37,14.19,.58,5.49,1.7,11.68,3.61,18.39,1.92,6.7,4.57,13.91,7.99,21.43,3.45,7.5,7.68,15.43,12.34,23.78,4.65,8.37,9.74,17.21,14.59,26.85,4.83,9.63,9.43,20.06,12.56,31.62,3.05,11.49,4.41,23.29,3.53,34.81-.48,5.75-1.54,11.41-3.21,16.81-1.62,5.42-4.06,10.52-6.93,15.15-2.84,4.68-6.31,8.71-9.86,12.24-3.58,3.53-7.32,6.5-11,9.15-7.39,5.27-14.53,9.23-20.91,12.8-25.57,14.21-41.97,22.08-43.12,20.22-1.16-1.86,13.14-13.09,37.2-29.74,6-4.17,12.55-8.56,18.83-13.72,6.27-5.15,12.25-11.13,16.33-18.46,4.23-7.27,6.56-16.09,7.17-25.54,.53-9.48-.68-19.58-3.35-29.62-2.7-9.98-6.78-19.64-11.19-28.87-4.42-9.24-9.17-18.14-13.55-26.85-4.39-8.71-8.38-17.22-11.57-25.57-3.14-8.36-5.4-16.44-6.78-23.97-1.37-7.54-1.79-14.54-1.54-20.65,.21-6.12,1.26-11.34,2.41-15.47,.32-1.02,.62-1.99,.9-2.9,.3-.9,.68-1.72,.99-2.48,.32-.76,.63-1.45,.92-2.08,.29-.63,.64-1.17,.93-1.65,1.19-1.93,2.06-2.82,2.57-2.62Z" fill="#0d0d0d"/><path d="M74.54,657.37c-.51-.19-.64-1.46-.43-3.68,.09-1.11,.33-2.44,.55-4.02,.2-1.59,.47-3.4,.81-5.41,1.22-8.09,2.65-19.78,2.25-34.11-.43-14.29-2.98-31.29-9.62-48.74-3.23-8.68-7.95-17.45-12.81-27.17-2.42-4.86-4.87-9.94-7.05-15.4-2.17-5.45-4.08-11.29-5.24-17.54-.14-.78-.31-1.55-.42-2.34l-.29-2.38c-.23-1.57-.3-3.17-.38-4.77-.12-1.59-.06-3.19,0-4.79l.08-2.39c.07-.79,.18-1.58,.27-2.36,.73-6.28,2.31-12.33,4.69-17.84,2.35-5.53,5.3-10.59,8.59-15.19,3.3-4.6,7.04-8.65,10.89-12.33,.98-.9,1.96-1.79,2.93-2.68,1.02-.83,2.02-1.65,3.03-2.47,.99-.84,2.04-1.57,3.07-2.33,1.04-.73,2.03-1.53,3.1-2.18,4.15-2.82,8.47-5.13,12.6-7.16,8.37-3.95,16.47-6.65,23.9-8.59,7.44-1.92,14.23-3.13,20.17-3.98,5.95-.85,11.08-1.31,15.28-1.57,8.4-.5,13.1-.18,13.28,.89,.18,1.09-4.21,2.84-12.21,5.2-3.98,1.14-8.85,2.54-14.49,4.17-5.6,1.64-11.93,3.55-18.71,6.02-6.77,2.48-13.97,5.56-21.19,9.56-3.59,2.08-7.15,4.25-10.58,6.87-.89,.61-1.7,1.34-2.56,2.01-.85,.69-1.72,1.35-2.52,2.11-.82,.74-1.65,1.48-2.48,2.22-.79,.79-1.58,1.58-2.38,2.38-3.12,3.25-6.14,6.74-8.72,10.6-2.58,3.85-4.84,7.98-6.6,12.35-1.79,4.36-2.89,8.98-3.39,13.68-.06,.59-.15,1.18-.19,1.77l-.04,1.78c-.03,1.19-.1,2.37,.02,3.58,.06,1.2,.11,2.41,.3,3.63l.22,1.83c.08,.61,.23,1.23,.33,1.84,1.82,9.86,6.14,19.49,10.66,29.01,2.26,4.77,4.59,9.53,6.77,14.36,.54,1.22,1.07,2.43,1.6,3.63,.51,1.23,1.02,2.45,1.52,3.66,.92,2.49,1.87,4.94,2.71,7.39,6.58,19.68,8.09,38.48,7.07,53.88-1.06,15.45-4.36,27.57-7.5,35.51-.82,1.98-1.58,3.72-2.27,5.21-.71,1.49-1.44,2.69-2.03,3.66-1.21,1.93-2.08,2.83-2.6,2.64Z" fill="#0d0d0d"/><path d="M48.88,479.2c.04,.13-.15,.33-.59,.59-.43,.26-1.1,.6-2.04,.91-1.85,.64-4.78,1.33-8.7,1.22-3.9-.11-8.79-1.09-13.96-3.65-2.58-1.27-5.23-2.93-7.81-5.04-2.58-2.1-5.1-4.64-7.36-7.68-1.14-1.51-2.21-3.15-3.18-4.91-.98-1.76-1.86-3.64-2.59-5.66-.73-1.99-1.38-4.16-1.71-6.34-.17-1.09-.44-2.19-.52-3.33-.1-1.13-.22-2.27-.29-3.43-.41-9.29,1.94-19.38,6.85-28.86,2.45-4.75,5.53-9.36,9.2-13.71,3.67-4.36,8-8.41,12.7-12.06,9.48-7.3,20.65-13.14,32.53-18.04,11.91-4.97,24.45-9.04,37.53-13.62,6.59-2.11,13.3-4.26,20.15-6.45,6.87-2.09,13.9-4.13,21.04-6.25,28.63-8.19,59.54-15.75,92.22-22.68,32.68-6.95,67.13-13.35,102.82-19.69,35.7-6.35,72.64-12.65,110.29-19.75,37.66-7.06,74.19-14.85,109.12-23.63,2.18-.54,4.36-1.09,6.54-1.63,2.16-.58,4.32-1.15,6.48-1.73,4.31-1.15,8.59-2.3,12.86-3.44,4.28-1.11,8.47-2.41,12.68-3.6,4.2-1.22,8.37-2.43,12.53-3.63,4.13-1.29,8.23-2.57,12.32-3.84,4.08-1.28,8.16-2.49,12.15-3.89,4.01-1.35,7.99-2.69,11.95-4.03,1.98-.68,3.96-1.31,5.91-2.01,1.95-.71,3.89-1.42,5.83-2.13,31.04-11.19,59.85-23.64,85.94-36.99,3.26-1.67,6.5-3.32,9.7-4.96,3.15-1.75,6.26-3.48,9.35-5.19,3.09-1.71,6.15-3.41,9.19-5.09,3.01-1.71,5.94-3.46,8.8-5.21,11.39-7.01,21.48-14.66,28.71-23.8,.94-1.13,1.73-2.29,2.56-3.44,.76-1.19,1.57-2.35,2.23-3.58,1.43-2.41,2.59-4.92,3.6-7.45,1.02-2.53,1.73-5.11,2.34-7.66,.49-2.57,.9-5.13,.95-7.64,.22-5.04-.67-9.86-2.32-14.21-1.74-4.32-4.36-8.16-7.48-11.38-6.28-6.48-14.32-10.51-22-12.79-3.87-1.14-7.68-1.85-11.36-2.24-3.72-.39-7.3-.42-10.71-.34-6.82,.19-12.91,1.09-18.18,1.98-5.27,.91-9.74,1.88-13.36,2.63-7.24,1.53-11.12,2.19-11.28,1.66-.15-.51,3.4-2.19,10.41-4.73,3.51-1.26,7.9-2.73,13.21-4.16,5.31-1.4,11.56-2.84,18.8-3.53,3.62-.34,7.48-.54,11.57-.36,4.11,.18,8.43,.73,12.84,1.79,4.41,1.06,8.94,2.61,13.41,4.84,4.46,2.23,8.88,5.14,12.88,8.94,3.99,3.79,7.53,8.5,9.99,14.01,2.37,5.53,3.71,11.74,3.66,18.04,.04,3.16-.34,6.32-.85,9.49-.63,3.14-1.4,6.3-2.53,9.37-1.12,3.07-2.41,6.12-4.03,9.05-.76,1.49-1.68,2.91-2.55,4.36-.95,1.4-1.89,2.85-2.92,4.18-2.02,2.72-4.25,5.32-6.63,7.79-2.37,2.48-4.89,4.85-7.53,7.09-5.27,4.52-10.98,8.57-16.88,12.42-2.96,1.91-5.95,3.79-8.99,5.61-3.06,1.78-6.15,3.59-9.26,5.4-3.12,1.82-6.27,3.65-9.44,5.5-3.24,1.74-6.5,3.49-9.8,5.26-26.36,14.14-55.55,27.29-87,39.06-1.96,.74-3.93,1.49-5.91,2.24-1.98,.74-3.99,1.41-5.99,2.12-4.01,1.4-8.04,2.81-12.1,4.23-4.04,1.46-8.17,2.73-12.3,4.07-4.13,1.33-8.29,2.67-12.47,4.01-4.19,1.29-8.43,2.52-12.68,3.79-4.26,1.24-8.51,2.59-12.83,3.75-4.31,1.19-8.65,2.38-13,3.58-2.18,.6-4.36,1.19-6.55,1.79-2.2,.56-4.4,1.12-6.61,1.69-35.29,9.08-72.15,17.06-110.01,24.15-37.86,7.14-74.89,13.35-110.57,19.48-35.68,6.12-70.01,12.19-102.54,18.7-32.53,6.48-63.23,13.5-91.69,21.05-7.1,1.95-14.07,3.87-20.92,5.75-6.81,2.01-13.49,3.99-20.04,5.92-12.96,4.2-25.64,7.97-37.1,12.38-11.5,4.36-21.91,9.44-30.65,15.7-4.37,3.16-8.25,6.54-11.61,10.23-3.36,3.69-6.22,7.63-8.54,11.67-4.64,8.09-7.01,16.62-7.09,24.48,.01,.98,.07,1.95,.09,2.91,0,.97,.2,1.9,.29,2.83,.18,1.89,.6,3.6,1.1,5.31,.5,1.7,1.14,3.32,1.87,4.86,.72,1.54,1.55,3,2.43,4.36,1.77,2.74,3.8,5.11,5.91,7.12,2.1,2.03,4.31,3.68,6.48,5,4.35,2.67,8.54,4.01,12,4.6,3.47,.58,6.22,.47,8.07,.37,.93-.04,1.64-.11,2.14-.11,.49,0,.77,.07,.81,.2Z" fill="#0d0d0d"/><path d="M104.26,603.34c.65,1.03-3.12,4.04-8.26,10.45-2.55,3.21-5.42,7.29-7.95,12.38-2.49,5.1-4.7,11.19-5.69,18.08-.96,6.87-.74,14.5,1.49,22.29,2.17,7.75,6.19,15.6,12.13,22.26,.73,.84,1.54,1.61,2.31,2.43,.81,.78,1.65,1.52,2.48,2.3,.89,.7,1.75,1.43,2.66,2.13,.94,.67,1.86,1.37,2.85,2,1.95,1.3,4.02,2.49,6.2,3.59,2.16,1.12,4.45,2.11,6.8,3.04,9.42,3.72,20.2,6.04,31.46,7.97,11.22,1.84,22.26,3.13,32.97,3.66,2.68,.18,5.33,.16,7.96,.26,1.32,.04,2.63,.07,3.93,.11,1.3-.02,2.6-.03,3.89-.05,2.58-.05,5.13-.05,7.66-.12,2.52-.14,5.01-.27,7.47-.4,2.47-.08,4.89-.34,7.28-.57,2.39-.24,4.76-.41,7.08-.69,2.32-.31,4.6-.62,6.85-.92,1.13-.15,2.24-.3,3.35-.45,1.1-.19,2.19-.39,3.27-.58,2.17-.38,4.3-.74,6.39-1.11,2.09-.38,4.11-.87,6.12-1.29,2-.44,3.97-.82,5.88-1.27,1.9-.49,3.76-.96,5.58-1.43,1.82-.48,3.62-.86,5.33-1.38,1.72-.51,3.39-1,5.02-1.48,1.63-.47,3.22-.93,4.76-1.38,1.52-.5,2.99-.99,4.41-1.46,1.43-.46,2.81-.91,4.14-1.34,.67-.21,1.32-.42,1.96-.63,.63-.23,1.25-.45,1.86-.67,2.43-.87,4.66-1.65,6.69-2.32,2.05-.64,3.8-1.34,5.37-1.86,1.57-.53,2.92-.95,4.03-1.23,2.24-.58,3.55-.65,3.81-.17,.26,.48-.54,1.5-2.31,3-.89,.75-2.02,1.63-3.39,2.61-1.38,.98-2.95,2.14-4.84,3.23-1.87,1.12-3.97,2.35-6.29,3.67-.58,.33-1.17,.66-1.78,1-.61,.33-1.25,.63-1.89,.96-1.3,.64-2.64,1.3-4.04,1.99-1.4,.68-2.85,1.38-4.35,2.11-1.53,.65-3.11,1.32-4.74,2.01-1.63,.68-3.31,1.38-5.04,2.09-1.73,.72-3.55,1.3-5.4,1.98-1.86,.65-3.75,1.32-5.7,2.01-1.95,.65-3.98,1.21-6.04,1.83-2.06,.59-4.16,1.27-6.32,1.82-2.17,.53-4.39,1.06-6.64,1.61-1.13,.27-2.27,.54-3.41,.82-1.15,.24-2.32,.45-3.5,.68-2.36,.45-4.75,.9-7.18,1.36-2.44,.42-4.93,.72-7.45,1.09-2.52,.36-5.07,.73-7.68,.93-2.6,.24-5.24,.48-7.9,.72-2.67,.17-5.38,.26-8.11,.38-1.37,.05-2.74,.13-4.12,.16-1.38,0-2.77,0-4.17,0-2.79-.03-5.61,.04-8.46-.09-11.38-.34-23.12-1.59-35.01-3.55-2.96-.55-5.91-1.11-8.84-1.65-2.93-.58-5.84-1.24-8.74-1.99-5.79-1.48-11.52-3.27-17.05-5.57-5.52-2.3-10.86-5.09-15.71-8.53-1.23-.83-2.39-1.76-3.56-2.66-1.15-.94-2.25-1.93-3.36-2.9-1.04-1.03-2.1-2.04-3.1-3.09-.96-1.08-1.95-2.13-2.84-3.24-7.24-8.83-11.71-18.88-13.79-28.66-2.14-9.78-1.67-19.37,.29-27.54,1.99-8.2,5.41-15.02,9.07-20.44,3.71-5.41,7.71-9.4,11.24-12.24,3.52-2.88,6.65-4.52,8.81-5.48,2.24-.86,3.51-1.06,3.8-.59Z" fill="#0d0d0d"/><path d="M52.88,479.1c.15,.51-.81,1.35-2.99,2.32-2.19,.87-5.66,1.76-10.25,1.63-.57-.03-1.16-.05-1.77-.08-.61-.03-1.21-.15-1.85-.22-.63-.1-1.29-.16-1.94-.3-.65-.15-1.32-.31-2-.46-.34-.08-.69-.17-1.04-.25-.34-.11-.68-.22-1.03-.33-.7-.23-1.41-.47-2.13-.71-1.4-.6-2.9-1.16-4.34-1.96-1.49-.72-2.92-1.66-4.42-2.62-1.43-1.05-2.93-2.12-4.32-3.42-2.83-2.53-5.53-5.62-7.78-9.31C2.53,456.13-.08,446.82,0,436.94c.02-4.94,.68-10.03,2.02-15.12,1.3-5.08,3.43-10.18,6.12-14.95,5.37-9.63,13.28-18.15,22.51-25.15,9.26-7.03,19.91-12.5,30.91-16.84,11.04-4.35,21.89-7.55,32.22-10.56,10.37-3.01,20.43-5.73,30.05-8.18,19.24-4.89,36.71-8.66,51.47-11.38,29.53-5.43,48.1-6.85,48.51-4.75,.43,2.21-17.33,7.5-45.94,15.68-14.31,4.09-31.33,8.94-50.14,14.56-9.41,2.81-19.27,5.8-29.46,8.97-10.22,3.19-20.7,6.41-30.85,10.42-10.16,4.01-19.5,8.75-27.48,14.56-7.97,5.81-14.62,12.63-19.18,20.08-4.64,7.37-7.04,15.43-7.6,23.1-.56,7.67,.86,14.82,3.68,20.59,1.38,2.84,3.13,5.37,5.07,7.57,.94,1.13,2.01,2.09,3.01,3.07,1.08,.89,2.1,1.8,3.2,2.53,1.05,.82,2.17,1.42,3.21,2.1,.55,.29,1.08,.57,1.61,.84,.26,.14,.53,.28,.78,.42,.27,.12,.53,.23,.79,.35,.53,.23,1.04,.46,1.54,.68,.51,.21,1.02,.36,1.52,.54,.5,.16,.98,.37,1.46,.5,.48,.13,.96,.26,1.42,.38,3.7,.97,6.75,1.16,8.89,1.34,2.12,.09,3.38,.29,3.54,.83Z" fill="#0d0d0d"/><path d="M273.27,666.2c.21,.48-3.32,2.7-10.42,6.24-3.55,1.76-8.02,3.81-13.47,5.94-5.45,2.11-11.93,4.24-19.5,5.73-3.77,.79-7.83,1.28-12.1,1.66-2.14,.1-4.33,.3-6.58,.28-1.12,.01-2.26,.02-3.41,.03-1.14-.04-2.3-.07-3.47-.11-2.35-.03-4.72-.29-7.15-.45-2.49-.24-5.07-.58-7.63-1.14-5.15-1.05-10.35-2.76-15.49-5.1-5.12-2.37-10.19-5.36-14.96-9.13-4.78-3.74-9.26-8.28-13.07-13.65-3.75-5.39-6.9-11.65-8.43-18.68-1.58-6.98-1.5-14.68,.4-21.94,1.86-7.33,5.54-14.29,10.33-20.29,4.78-6.03,10.58-11.19,16.83-15.71,6.26-4.53,12.99-8.44,19.98-11.97,3.49-1.77,7.05-3.45,10.66-5.06,3.58-1.54,7.19-3.09,10.84-4.66,14.54-6.3,29.83-12.2,45.64-18.09,3.97-1.41,7.98-2.83,12.01-4.26,2.02-.71,4.04-1.43,6.07-2.15,2.04-.68,4.09-1.37,6.15-2.05,4.11-1.37,8.26-2.75,12.43-4.14,4.19-1.32,8.41-2.64,12.66-3.97,2.12-.66,4.25-1.33,6.39-2,2.15-.63,4.3-1.27,6.46-1.91,4.32-1.27,8.67-2.55,13.04-3.83,8.78-2.42,17.64-4.97,26.66-7.27,18-4.77,36.48-9.17,55.35-13.39,37.73-8.42,77.04-15.82,117.36-22.69,40.32-6.89,79.74-12.94,117.74-18.92,38.01-5.95,74.61-11.84,109.35-17.99,8.67-1.58,17.26-3.08,25.69-4.7,4.22-.8,8.41-1.59,12.58-2.37,4.16-.82,8.28-1.63,12.38-2.44,16.41-3.21,32.18-6.51,47.1-10.57,14.91-4.05,28.97-8.87,41.79-14.88,12.81-6.03,24.34-13.14,34.16-21.46,2.51-2.02,4.79-4.21,7.1-6.34,1.1-1.11,2.2-2.21,3.29-3.31,1.11-1.08,2.08-2.27,3.12-3.38,.51-.57,1.02-1.13,1.53-1.69,.49-.57,.96-1.17,1.44-1.74,.94-1.17,1.92-2.3,2.81-3.48,1.74-2.39,3.52-4.72,5.03-7.16,1.64-2.37,2.95-4.88,4.36-7.29,.64-1.23,1.24-2.48,1.85-3.71,.31-.61,.61-1.23,.91-1.84,.26-.63,.52-1.25,.78-1.87,.52-1.25,1.04-2.48,1.55-3.71,.43-1.26,.86-2.5,1.29-3.74,.21-.62,.43-1.23,.64-1.85,.17-.62,.34-1.25,.5-1.87,.34-1.24,.67-2.47,1.01-3.69,2.29-9.75,2.5-19.32,1.39-27.94-1.1-8.64-3.46-16.35-6.37-22.92-1.46-3.29-3.09-6.28-4.77-8.99-.82-1.37-1.72-2.63-2.55-3.87-.9-1.19-1.73-2.38-2.63-3.44-3.49-4.34-6.97-7.58-9.95-10-6-4.83-9.77-6.66-9.49-7.24,.16-.41,4.4,.42,11.35,4.64,3.44,2.12,7.5,5.17,11.63,9.48,1.06,1.05,2.05,2.24,3.12,3.45,1,1.25,2.07,2.54,3.06,3.94,2.02,2.79,4,5.89,5.8,9.34,3.6,6.89,6.63,15.11,8.29,24.48,1.68,9.35,1.94,19.9-.19,30.95-.31,1.36-.63,2.73-.94,4.11-.16,.69-.32,1.39-.48,2.08-.21,.68-.41,1.37-.62,2.06-.42,1.38-.84,2.77-1.27,4.17-.51,1.37-1.03,2.75-1.56,4.15-.26,.7-.53,1.4-.8,2.1-.31,.68-.62,1.37-.93,2.06-.63,1.37-1.24,2.77-1.9,4.15-1.45,2.7-2.81,5.5-4.51,8.16-1.57,2.74-3.42,5.34-5.25,8.01-.94,1.32-1.96,2.58-2.95,3.89-.5,.65-.99,1.31-1.51,1.95-.53,.63-1.07,1.26-1.61,1.89-1.09,1.25-2.12,2.57-3.29,3.77-1.15,1.22-2.31,2.45-3.47,3.69-2.42,2.37-4.85,4.82-7.49,7.07-10.35,9.27-22.7,17.29-36.16,23.99-13.49,6.69-28.18,12.04-43.54,16.52-15.37,4.47-31.42,8.1-47.84,11.57-4.11,.87-8.26,1.75-12.43,2.63-4.18,.85-8.39,1.7-12.62,2.55-8.47,1.74-17.07,3.35-25.78,5.04-34.85,6.58-71.52,12.8-109.54,18.96-38.01,6.2-77.37,12.35-117.53,19.22-40.16,6.84-79.24,14.09-116.69,22.23-18.72,4.08-37.06,8.31-54.9,12.88-8.94,2.2-17.72,4.64-26.42,6.94-4.33,1.22-8.64,2.44-12.92,3.65-2.14,.61-4.27,1.21-6.4,1.81-2.12,.64-4.23,1.27-6.33,1.9-4.21,1.27-8.39,2.52-12.54,3.77-4.13,1.32-8.24,2.63-12.31,3.93-2.04,.65-4.07,1.3-6.1,1.95-2.01,.68-4.02,1.36-6.02,2.04-4,1.36-7.97,2.7-11.91,4.04-15.67,5.58-30.84,11.15-45.28,17.1-3.61,1.47-7.19,2.93-10.73,4.38-3.48,1.47-6.88,2.99-10.19,4.59-6.62,3.18-12.88,6.66-18.54,10.57-5.66,3.91-10.73,8.26-14.77,13.12-4.05,4.84-7.02,10.19-8.62,15.81-1.62,5.65-1.83,11.36-.79,16.83,1.01,5.47,3.36,10.6,6.33,15.17,6.07,9.15,14.71,15.97,23.55,20.48,4.45,2.24,8.98,3.96,13.47,5.08,2.24,.59,4.46,.98,6.68,1.31,2.29,.25,4.54,.61,6.74,.75,1.1,.09,2.19,.18,3.27,.27,1.08,.05,2.14,.09,3.2,.13,2.11,.13,4.16,.04,6.18,.07,4.01-.13,7.84-.37,11.43-.88,7.2-.95,13.54-2.52,18.99-4.11,5.45-1.61,10.04-3.16,13.76-4.43,7.43-2.55,11.41-3.8,11.64-3.28Z" fill="#0d0d0d"/><path d="M268.45,320.57c-.54,.08-1.14-.52-1.79-1.84-.63-1.32-1.17-3.38-1.35-6.14-.12-2.73,.16-6.15,1.25-9.93,1.07-3.77,2.93-7.88,5.63-11.96,2.68-4.11,6.26-8.13,10.64-11.89,2.17-1.81,4.48-3.56,6.92-5.22,2.44-1.64,5-3.22,7.63-4.73,10.49-6.06,22.22-10.92,31.9-18,4.88-3.54,9.02-7.51,12.01-11.74,1.5-2.11,2.71-4.29,3.64-6.5,.88-2.22,1.52-4.48,1.91-6.93,.81-4.87,.82-10.13,.91-15.32,.08-5.21,.29-10.41,1.2-15.23,.45-2.41,1.06-4.71,1.84-6.84,.78-2.16,1.74-4.13,2.8-5.85,2.13-3.45,4.64-5.98,7.01-7.57,2.36-1.61,4.5-2.32,5.98-2.5,1.49-.18,2.34,.12,2.53,.61,.41,1.1-1.85,2.74-4.23,6.33-1.19,1.78-2.39,4.12-3.29,6.96-.45,1.43-.81,2.96-1.05,4.63-.25,1.69-.39,3.52-.43,5.47-.08,3.92,.31,8.38,.8,13.49,.46,5.12,1.06,10.95,.45,17.63-.29,3.32-1.02,6.89-2.21,10.39-1.23,3.48-2.92,6.83-4.97,9.95-4.11,6.24-9.56,11.49-15.51,15.82-2.98,2.18-6.03,4.1-9.08,5.83-3.05,1.73-6.03,3.23-8.96,4.64-5.84,2.81-11.37,5.21-16.38,7.65-2.5,1.22-4.88,2.43-7.13,3.67-2.23,1.25-4.33,2.53-6.29,3.82-3.78,2.58-7.09,5.39-9.73,8.28-2.67,2.87-4.75,5.76-6.29,8.45-1.56,2.69-2.57,5.19-3.33,7.33-1.41,4.27-1.84,7.07-3,7.24Z" fill="#0d0d0d"/></g><g><path d="M793.6,157.63s2.48-.94,2.5-.95l2.65-4.02c.1-.09,.11-.24,.03-.34C730.6,63.97,623.69,7.05,503.47,7.05c-194.72,0-354.54,149.27-371.35,339.62-.02,.17,.14,.31,.31,.27" fill="none" stroke="#0d0d0d" stroke-miterlimit="10" stroke-width="14.1"/><path d="M187.24,576.9c-.13,.07-.18,.24-.1,.37,65.88,105.36,182.91,175.46,316.33,175.46,192.61,0,351.11-146.06,370.77-333.47,.02-.19-.16-.33-.34-.27" fill="none" stroke="#0d0d0d" stroke-miterlimit="10" stroke-width="14.1"/></g><g><path d="M208.78,605.56c-.2-.19,.05-.82,.73-1.9,.34-.54,.79-1.18,1.34-1.94,.55-.76,1.22-1.61,2.03-2.53,3.14-3.78,8.29-8.92,15.64-14.73,7.39-5.73,17.04-12.06,29.03-17.86,11.97-5.82,26.27-11.14,42.42-15.33,8.07-2.11,16.61-3.97,25.52-5.62,8.92-1.63,18.21-3.05,27.83-4.36,9.61-1.3,19.53-2.49,29.72-3.72,10.19-1.21,20.69-2.46,31.44-3.74,43.04-5.06,90.39-10.41,140.11-15.79,49.72-5.38,97.12-10.28,140.25-14.55,21.56-2.08,42.04-4.06,61.21-5.91,9.52-.94,18.62-2,27.24-3.42,8.61-1.44,16.74-3.24,24.29-5.53,7.54-2.29,14.5-5.12,20.73-8.35,6.19-3.23,11.67-7,16.43-10.97,1.16-1.03,2.36-1.98,3.43-3.02,1.08-1.04,2.13-2.06,3.17-3.07,.97-1.06,1.93-2.11,2.86-3.13,.96-1.01,1.74-2.11,2.6-3.13,3.29-4.17,5.98-8.26,7.92-12.18,4.06-7.78,5.71-14.54,6.53-19.16,.54-2.31,.64-4.12,.93-5.34,.26-1.22,.52-1.87,.79-1.89s.55,.6,.83,1.85c.24,1.25,.67,3.13,.63,5.62,.19,4.96-.55,12.51-4.09,21.45-1.69,4.5-4.2,9.24-7.44,14.1-.84,1.19-1.63,2.47-2.58,3.66-.94,1.2-1.91,2.42-2.89,3.66-1.06,1.18-2.14,2.38-3.23,3.61-1.11,1.22-2.34,2.35-3.55,3.56-4.94,4.71-10.74,9.23-17.45,13.19-6.68,3.94-14.09,7.36-22.12,10.19-8.02,2.82-16.61,5.08-25.59,6.91-8.98,1.81-18.34,3.21-27.97,4.45-19.2,2.41-39.59,4.83-61.13,7.37-43.04,5.06-90.39,10.41-140.11,15.79-49.72,5.38-97.12,10.28-140.25,14.55-10.78,1.05-21.3,2.08-31.52,3.07-10.22,.99-20.13,1.9-29.64,2.91-9.52,1.01-18.67,2.1-27.4,3.38-8.73,1.29-17.05,2.76-24.92,4.46-15.74,3.36-29.61,7.7-41.4,12.52-11.8,4.8-21.47,10.07-29.1,14.82-7.59,4.82-13.22,9.04-16.99,11.99-.97,.71-1.81,1.36-2.53,1.92-.73,.56-1.36,1.01-1.88,1.35-1.05,.69-1.69,.96-1.89,.77Z" fill="#0d0d0d"/><path d="M270.73,318.16c-.27,.04-.57-.25-.91-.9-.32-.64-.75-1.64-.97-3-.56-2.69-.68-6.93,.74-12.09,1.39-5.15,4.43-11.07,9.3-16.8,2.43-2.86,5.36-5.68,8.72-8.28,3.32-2.58,7.01-4.99,10.92-7.28,7.82-4.59,16.59-8.6,24.89-13.62,4.11-2.48,8.03-5.32,11.6-8.64,3.53-3.32,6.68-7.1,8.78-11.26,1.06-2.07,1.89-4.23,2.34-6.44,.47-2.21,.66-4.43,.56-7.02-.08-2.56-.41-5.37-.78-8.43-.36-3.05-.78-6.38-.85-10.04-.08-3.64,.21-7.68,1.41-11.76,1.19-4.13,3.22-7.69,5.26-10.75,2.06-3.08,4.2-5.73,6.07-8.23,1.87-2.48,3.45-4.81,4.49-7,1.07-2.24,1.51-3.98,1.67-6.62,.17-2.59-.03-5.71-.05-9.29-.03-3.55,.32-7.81,1.36-11.57,1.01-3.81,2.54-7.37,4.38-10.62,1.83-3.25,3.98-6.19,6.31-8.83,2.32-2.64,4.79-5.05,7.35-7.21,2.57-2.15,5.22-4.1,7.91-5.88,2.73-1.78,5.4-3.3,8.06-4.76,10.66-5.71,20.66-9.79,28.94-14.73,1.03-.62,2.05-1.23,3.03-1.86,.49-.32,.97-.64,1.46-.95,.49-.32,.86-.61,1.3-.91,1.67-1.22,3.19-2.58,4.46-3.99,1.27-1.41,2.3-2.87,2.95-4.25,.66-1.38,.95-2.63,.93-3.72-.02-1.12-.35-2.15-1.06-3.27-.7-1.13-1.88-2.34-3.21-3.57-1.34-1.25-2.87-2.53-4.37-4.02-.74-.76-1.46-1.58-2.15-2.36-.63-.84-1.27-1.64-1.83-2.48-2.23-3.35-3.63-6.79-4.47-10.01-.85-3.23-1.12-6.26-1.03-8.95,0-.34,.01-.67,.02-.99,.03-.33,.06-.65,.09-.96,.07-.63,.11-1.24,.2-1.82,.23-1.17,.38-2.26,.7-3.24,.27-.99,.55-1.88,.9-2.67,.32-.8,.63-1.5,.99-2.1,.35-.6,.64-1.13,.95-1.55,.33-.42,.62-.76,.88-1.01,.52-.51,.89-.7,1.14-.58,.25,.12,.35,.55,.34,1.24,0,.35-.04,.76-.11,1.24-.05,.48-.08,1.04-.16,1.65-.23,2.46-.57,6.03,.22,10.41,.7,4.34,2.61,9.56,6.44,14.04,.48,.56,1.02,1.07,1.52,1.62,.57,.49,1.11,.99,1.72,1.5,1.25,1,2.76,2.03,4.45,3.3,1.67,1.28,3.57,2.77,5.34,4.99,1.77,2.19,3.25,5.2,3.64,8.45,.43,3.26-.15,6.53-1.23,9.36-1.09,2.85-2.64,5.35-4.4,7.61-1.77,2.26-3.78,4.29-5.99,6.14-.55,.44-1.15,.94-1.68,1.33-.54,.4-1.08,.8-1.63,1.21-1.09,.8-2.21,1.57-3.35,2.33-9.08,6.09-19.29,10.78-28.78,16.34-2.36,1.39-4.72,2.86-6.9,4.37-2.19,1.55-4.32,3.21-6.34,4.99-2.01,1.79-3.88,3.71-5.58,5.74-1.71,2.02-3.21,4.18-4.42,6.42-1.22,2.24-2.16,4.57-2.76,6.94l-.39,1.79-.23,1.81c-.14,1.2-.16,2.51-.15,3.97,.02,2.91,.29,6.33,.08,10.31-.11,1.99-.36,4.13-.91,6.33-.32,1.06-.6,2.17-.99,3.19-.4,1.01-.78,2.06-1.26,2.98-1.84,3.83-4.08,6.96-6.17,9.73-2.09,2.75-4.06,5.19-5.62,7.5-1.57,2.31-2.74,4.43-3.34,6.46-.63,2.05-.9,4.4-.89,7.03-.01,5.28,1.17,11.46,1.24,18.4,0,.87,0,1.74-.05,2.65l-.06,1.34-.14,1.37c-.05,.46-.09,.91-.16,1.37l-.24,1.36c-.17,.91-.31,1.82-.57,2.69-.87,3.55-2.27,6.86-3.95,9.86-3.35,6.05-7.79,10.82-12.39,14.78-4.62,3.93-9.54,7.1-14.37,9.65-4.79,2.57-9.44,4.62-13.82,6.56-4.38,1.93-8.51,3.7-12.3,5.52-3.79,1.82-7.26,3.67-10.38,5.62-3.07,1.92-5.77,4-8.12,6.16-4.7,4.32-7.96,8.84-9.94,12.85-2.01,4.01-2.85,7.47-3.32,9.89-.3,1.22-.4,2.17-.62,2.84-.2,.67-.43,1.04-.7,1.08Z" fill="#0d0d0d"/><path d="M352.95,202.35c.3-.07,.71,.43,1.21,1.46,.25,.52,.52,1.17,.82,1.96,.26,.79,.49,1.72,.75,2.77,.29,1.05,.45,2.24,.63,3.56,.08,.66,.21,1.34,.24,2.06,.03,.72,.07,1.47,.11,2.24,.12,1.56-.03,3.21-.08,4.98-.04,.88-.18,1.78-.28,2.71-.11,.93-.21,1.89-.42,2.84-.63,3.89-1.91,8.05-3.74,12.34-1.85,4.28-4.37,8.66-7.69,12.79-.87,1-1.73,2.04-2.64,3.05-.97,.96-1.93,1.95-2.95,2.91-1.07,.9-2.13,1.84-3.24,2.73-.57,.42-1.14,.85-1.71,1.28-.59,.4-1.17,.81-1.76,1.22-4.78,3.18-10.03,5.73-15.38,7.98-5.35,2.26-10.57,4.15-15.4,6.12-4.84,1.96-9.35,4.01-13.34,6.33-4.01,2.3-7.47,4.89-10.31,7.68-1.43,1.42-2.61,2.83-3.71,4.3-1.02,1.51-1.98,3-2.7,4.52-1.52,3.02-2.38,5.99-2.82,8.64-.44,2.66-.43,5.01-.27,6.94,.41,3.85,1.28,6.03,.68,6.38-.27,.16-.8-.2-1.59-1.08-.77-.89-1.69-2.38-2.5-4.49-.77-2.12-1.34-4.88-1.34-8.11,0-3.23,.55-6.93,1.97-10.75,.67-1.93,1.62-3.85,2.72-5.8,1.15-1.91,2.53-3.86,4.09-5.64,3.14-3.59,7.05-6.87,11.44-9.67,4.39-2.83,9.23-5.22,14.26-7.39,5.03-2.18,10.21-4.13,15.31-6.28,5.1-2.15,9.87-4.42,14.07-7.08,4.21-2.65,7.76-5.71,10.77-9.13,3-3.4,5.41-7.05,7.3-10.66,1.87-3.62,3.34-7.19,4.28-10.57,2.02-6.75,2.36-12.56,2.52-16.59,.01-1.01,.07-1.92,.1-2.71,0-.79,0-1.46,.05-2.02,.08-1.11,.27-1.74,.57-1.82Z" fill="#0d0d0d"/><path d="M439.45,84.13c-.16-1.08,.93-2.13,1.52-3.69,.28-.74,.5-1.6,.56-2.56,.03-.48,.02-.96-.05-1.42-.05-.23-.09-.45-.17-.66-.07-.22-.15-.34-.25-.62-.74-1.88-2.51-4.2-5.86-6.85-1.69-1.39-3.84-2.94-6.26-5.05-.61-.54-1.22-1.1-1.85-1.72-.62-.63-1.23-1.32-1.84-2l-.91-1.03-.82-1.11c-.54-.75-1.1-1.5-1.6-2.28-1.96-3.17-3.42-6.49-4.39-9.79-.91-3.31-1.47-6.58-1.52-9.69-.2-6.23,1.1-11.75,3.03-15.94,1.93-4.21,4.44-7.07,6.46-8.65,2.13-1.53,3.71-1.89,4.56-1.22,.87,.68,.99,2.28,.71,4.44-.19,2.22-.71,5.05-.92,8.45-.22,3.39-.1,7.35,.72,11.51,.35,2.09,1.01,4.2,1.75,6.3,.8,2.09,1.82,4.13,3.01,6.09,.31,.48,.66,.93,.97,1.4l.47,.7,.54,.63c.35,.43,.7,.85,1.04,1.28,.38,.42,.79,.85,1.22,1.29,1.73,1.77,3.82,3.67,5.85,5.94,.51,.56,1.01,1.16,1.49,1.76,.5,.63,.98,1.27,1.42,1.93,.89,1.32,1.68,2.71,2.31,4.16,1.28,2.9,1.91,6.15,1.62,9.14-.06,.71-.19,1.55-.38,2.26-.18,.73-.43,1.4-.69,2.03-.55,1.25-1.25,2.3-2,3.18-1.51,1.76-3.29,2.82-4.86,3.27-1.57,.44-2.8,.28-3.61-.06-.82-.37-1.2-.89-1.28-1.42Z" fill="#0d0d0d"/><path d="M591.84,253.74c.29-.51,1.35-.41,2.93-.58,1.56-.15,3.76-.73,5.95-2.4,1.08-.82,2.15-1.93,2.91-3.25,.21-.32,.35-.67,.52-1.01,.15-.39,.33-.77,.45-1.19,.28-.82,.49-1.71,.62-2.66,.28-1.9,.23-4.06-.11-6.41-.34-2.36-1-4.83-1.9-7.63-.89-2.79-2.01-5.85-3.02-9.37-.5-1.76-.97-3.64-1.31-5.65-.27-2.03-.57-4.11-.58-6.24-.11-4.25,.34-8.65,1.45-13,1.12-4.34,2.81-8.62,5.02-12.71,4.43-8.19,10.87-15.69,19.1-21.58,8.09-5.81,17.5-9.99,27.24-12.76,9.76-2.78,19.4-4.14,28.57-4.93,4.58-.38,8.83-.63,12.75-1.1,3.9-.47,7.51-1.18,10.61-2.28,3.12-1.1,5.93-2.65,8.11-4.49,1.09-.92,2.03-1.91,2.8-2.95,.79-1.03,1.34-2.12,1.86-3.36,1-2.51,1.59-5.57,2.08-8.85,.52-3.27,.96-6.72,1.93-10.21,.96-3.48,2.54-7.02,4.9-9.83,.53-.71,1.25-1.38,1.93-2.02,.66-.67,1.45-1.14,2.17-1.66,1.49-.97,3.05-1.66,4.57-2.12,3.05-.93,5.94-1,8.47-.68,2.54,.3,4.74,1.1,6.56,2.05,3.67,1.92,5.73,4.55,6.56,6.46,.48,.93,.58,1.76,.62,2.31,.02,.56-.1,.89-.35,1.01s-.61,.04-1.07-.21c-.47-.24-.96-.68-1.7-1.12-1.38-.94-3.43-2.11-6.27-2.69-2.76-.61-6.5-.47-9.66,1.15-.78,.41-1.5,.91-2.12,1.49-.28,.32-.65,.56-.86,.94-.25,.35-.52,.63-.75,1.1-1,1.67-1.65,3.71-2.05,6.27-.4,2.56-.5,5.6-.71,9.05-.21,3.44-.49,7.41-1.81,11.83-.14,.54-.38,1.11-.58,1.66-.22,.56-.4,1.12-.68,1.67-.51,1.12-1.09,2.21-1.75,3.26-1.31,2.1-2.9,4.02-4.67,5.72-3.55,3.41-7.75,5.98-12.25,7.84-4.55,1.86-9.2,2.93-13.79,3.66-4.58,.72-9.07,1.1-13.37,1.57-8.56,.93-17.27,2.3-25.71,4.71-8.43,2.4-16.15,5.78-22.67,10.23-6.4,4.34-11.65,10.03-15.31,16.07-1.83,3.03-3.27,6.15-4.3,9.28-1.01,3.13-1.55,6.26-1.72,9.29-.13,1.52-.02,3,.03,4.48,.11,1.47,.34,2.98,.62,4.51,.56,3.06,1.35,6.22,1.98,9.43,1.33,6.44,1.68,13.25-.27,19-.47,1.43-1.07,2.79-1.79,4.03-.34,.63-.75,1.2-1.14,1.77-.45,.57-.87,1.14-1.36,1.62-1.88,1.98-3.97,3.22-5.96,3.99-4,1.54-7.54,1.05-9.49,.05-.5-.22-.9-.5-1.23-.76-.33-.24-.57-.5-.74-.74-.34-.47-.42-.81-.29-1.05Z" fill="#0d0d0d"/><path d="M310.24,557.48c-.11,.25-.67,.34-1.6,.31-.23-.01-.48-.03-.76-.05-.28,0-.59,.02-.92,.03-.32,0-.67,0-1.05,0-.37,.04-.77,.09-1.19,.14-1.66,.2-3.68,.64-5.82,1.73-2.14,1.06-4.44,2.67-6.45,4.98-.96,1.18-1.96,2.45-2.68,3.93-.43,.71-.68,1.51-1.02,2.28-.14,.4-.24,.81-.36,1.22l-.18,.61-.1,.63c-.06,.43-.16,.83-.21,1.28-.03,.46-.06,.92-.1,1.38-.05,.46,0,.94,0,1.41v.71s.09,.72,.09,.72c.17,1.93,.62,3.92,1.38,5.91,1.49,3.97,4.07,7.96,7.62,11.38,1.79,1.73,3.74,3.24,6,4.64,2.25,1.4,4.71,2.65,7.35,3.74,5.29,2.18,11.29,3.73,17.79,5,6.5,1.29,13.58,2.29,21.09,3.92,3.76,.81,7.63,1.81,11.55,3.13,3.92,1.29,7.92,3.03,11.73,5.13,7.64,4.18,14.4,9.75,20.7,15.61,6.29,5.91,12.12,12.01,18.25,18.06,6.11,6.06,12.37,12.11,18.97,17.87,6.6,5.75,13.53,11.23,20.93,16.05,7.4,4.81,15.3,9.01,23.61,12.1,5.43,2,10.94,3.52,16.45,4.46l2.07,.31,1.03,.16,.88,.1c1.16,.11,2.25,.13,3.15,.06,.89-.08,1.55-.26,1.85-.39,.05-.04,.13-.06,.15-.08,.02-.02,0,.02,0,0,.02,.01,0-.01,.03,0,0-.02,0,0,.01-.02,.03-.07,.09-.21,.14-.43,.12-.43,.24-1.16,.36-2.13,.13-.96,.25-2.16,.52-3.59,.14-.71,.34-1.44,.52-2.15,.17-.72,.41-1.42,.68-2.1,.48-1.4,1.14-2.67,1.8-3.95,.72-1.2,1.45-2.41,2.28-3.46,1.62-2.16,3.39-4.03,5.19-5.63,1.79-1.63,3.62-3.06,5.4-4.36,1.79-1.32,3.55-2.51,5.25-3.64,1.71-1.15,3.35-2.22,4.88-3.3,1.5-1.07,3-2.13,4.42-3.29,11.51-9.07,20.45-20.51,26.41-32.55,1.53-3,2.79-6.07,3.98-9.12,1.1-3.08,2.12-6.14,2.92-9.28,1.67-6.23,2.8-12.53,3.76-18.74,1.92-12.4,3.33-24.42,6.03-35.3,.35-1.36,.7-2.7,1.05-4.02,.4-1.33,.8-2.64,1.19-3.94,.45-1.27,.9-2.53,1.33-3.77,.45-1.23,.98-2.42,1.46-3.61,2.01-4.7,4.32-8.94,6.76-12.72,2.51-3.75,5.15-7.03,7.84-9.8,.66-.71,1.39-1.33,2.05-1.96,.69-.62,1.31-1.27,2.03-1.8,1.4-1.09,2.66-2.17,4.04-3,5.31-3.51,10.04-5.09,13.25-5.67,.79-.21,1.53-.22,2.15-.27,.62-.04,1.15-.05,1.57-.04,.85,.03,1.29,.17,1.34,.42s-.29,.59-.99,1.03c-.35,.22-.79,.46-1.31,.72-.52,.28-1.15,.51-1.8,.92-2.69,1.41-6.54,3.64-10.71,7.4-1.08,.88-2.07,2.02-3.16,3.12-.56,.53-1.04,1.19-1.58,1.81-.52,.64-1.09,1.24-1.59,1.94-2.09,2.72-4.11,5.87-6.03,9.4-3.72,7.17-6.9,15.84-8.61,26.02-1.86,10.23-2.6,21.86-3.98,34.76-.71,6.44-1.62,13.23-3.21,20.25-.75,3.51-1.79,7.07-2.93,10.65-1.23,3.55-2.57,7.12-4.22,10.62-6.42,14.04-16.36,27.47-29.56,38.29-1.63,1.37-3.36,2.65-5.09,3.93-1.72,1.26-3.43,2.41-5.05,3.54-1.64,1.14-3.22,2.24-4.7,3.36-1.5,1.12-2.87,2.25-4.11,3.4-1.26,1.15-2.31,2.32-3.16,3.49-.46,.58-.77,1.17-1.13,1.75-.26,.59-.59,1.16-.76,1.75-.12,.29-.22,.58-.27,.88-.06,.3-.16,.58-.22,.9-.12,.63-.21,1.52-.35,2.65-.14,1.12-.3,2.48-.71,4.1-.2,.8-.47,1.67-.85,2.58-.38,.96-.91,1.9-1.47,2.78-.86,1.23-1.84,2.38-3.02,3.32-.56,.48-1.22,.94-1.84,1.32-.62,.39-1.23,.69-1.86,.99-2.48,1.1-4.82,1.55-6.96,1.76-2.13,.18-4.11,.13-6-.04-.48-.04-.93-.1-1.4-.15l-1.24-.18-2.48-.36c-6.6-1.1-13.1-2.89-19.4-5.21-19.31-7.21-35.49-19.02-49.3-31.37-6.93-6.19-13.33-12.57-19.44-18.85-6.12-6.26-11.92-12.56-17.59-18.15-5.7-5.57-11.43-10.49-17.49-14.05-5.97-3.58-12.57-5.82-19.43-7.59-6.84-1.77-13.84-3.08-20.7-4.77-6.86-1.69-13.57-3.76-19.73-6.72-3.08-1.48-6.01-3.19-8.71-5.12-2.7-1.91-5.23-4.16-7.34-6.52-4.27-4.74-7.24-10.16-8.78-15.68-.78-2.75-1.16-5.55-1.14-8.25,.03-2.72,.31-5.25,1.11-7.72l.27-.92,.36-.87c.24-.57,.46-1.14,.73-1.68,.59-1.04,1.1-2.1,1.79-3,1.24-1.89,2.75-3.4,4.21-4.74,3-2.62,6.23-4.18,9.14-5,2.92-.85,5.55-.83,7.56-.5,.5,.1,.97,.19,1.41,.27,.43,.14,.82,.28,1.18,.42,.36,.14,.68,.27,.98,.39,.28,.15,.53,.32,.75,.46,.86,.58,1.22,.99,1.11,1.24Z" fill="#0d0d0d"/><path d="M512.87,690.8c-.25-.49,.3-1.39,1.53-2.65,1.22-1.27,3.19-2.8,5.57-4.94,4.85-4.1,11.75-10.02,18.99-18.38,.9-1.04,1.82-2.11,2.76-3.21,.88-1.14,1.79-2.3,2.71-3.49,.46-.59,.92-1.19,1.39-1.79,.44-.63,.88-1.26,1.32-1.9,.88-1.29,1.83-2.55,2.7-3.9,3.53-5.39,6.85-11.4,9.82-17.94,2.98-6.53,5.39-13.69,7.15-21.23,.51-1.87,.82-3.8,1.17-5.74,.18-.97,.35-1.94,.53-2.91,.14-.99,.28-1.99,.41-2.99,.51-4.03,.88-8.24,1.23-12.6,.72-8.71,1.4-17.68,3.35-26.49,.97-4.4,2.27-8.75,3.96-12.91,1.71-4.16,3.78-8.02,6.06-11.56,4.58-7.09,9.97-12.89,15.39-17.7,5.45-4.79,10.95-8.61,16.09-11.71,10.32-6.17,19.14-9.79,25.31-12.03,6.19-2.19,9.85-2.88,10.35-1.91,.51,.98-2.21,3.53-7.46,7.37-5.21,3.87-13.04,8.94-21.83,15.81-4.39,3.45-8.95,7.39-13.36,11.97-4.38,4.6-8.6,9.86-12.02,15.82-1.71,2.98-3.21,6.13-4.41,9.43-1.19,3.31-2.13,6.85-2.86,10.59-1.47,7.48-2.04,15.76-2.75,24.62-.37,4.43-.78,8.91-1.4,13.4-.17,1.13-.34,2.25-.52,3.36-.22,1.12-.44,2.23-.66,3.34-.45,2.22-.86,4.43-1.49,6.56-2.24,8.6-5.31,16.63-9.06,23.83-3.73,7.21-7.91,13.68-12.33,19.33-1.09,1.42-2.27,2.73-3.38,4.06-.56,.66-1.11,1.31-1.66,1.95-.57,.63-1.16,1.22-1.73,1.82-1.15,1.19-2.28,2.36-3.38,3.5-1.17,1.07-2.32,2.12-3.43,3.15-9.02,8.12-17.56,13.06-23.69,15.73-3.03,1.42-5.57,2.13-7.32,2.51-1.76,.37-2.79,.32-3.03-.17Z" fill="#0d0d0d"/><path d="M351.9,535.64c.06,1.1-2.96,2.27-8.36,3.54-2.7,.65-5.98,1.33-9.7,2.19-3.72,.86-7.89,1.87-12.27,3.33-4.37,1.45-8.93,3.34-13.33,6.01-4.39,2.65-8.57,6.08-11.74,10.33-1.61,2.15-2.88,4.35-3.83,6.86-.94,2.49-1.54,5.17-1.72,7.85-.19,2.69,.13,5.36,.86,7.82,.19,.61,.42,1.2,.66,1.79,.29,.56,.5,1.16,.85,1.68,.57,1.1,1.37,2.15,2.25,3.15,1.79,2,4.08,3.74,6.65,5.2,2.59,1.46,5.4,2.6,8.37,3.53,5.99,1.86,12.55,2.89,19.13,4.23,6.65,1.36,12.96,3.11,18.67,5.12,5.72,2.01,10.89,4.27,15.47,6.58,9.15,4.65,15.91,9.48,20.21,13.23,4.29,3.78,6.16,6.46,5.55,7.33-.64,.92-3.7-.03-8.79-2.07-5.1-2.02-12.28-5.1-21.31-8.14-9.04-3.03-19.93-5.93-32.29-7.63-6.26-.9-13.34-1.62-21.01-3.72-3.84-1.07-7.8-2.55-11.64-4.64-3.83-2.1-7.61-4.83-10.85-8.45-1.61-1.81-3.08-3.79-4.24-5.97-.64-1.06-1.1-2.19-1.61-3.3-.45-1.12-.86-2.26-1.19-3.4-1.3-4.59-1.66-9.23-1.22-13.61,.44-4.39,1.56-8.55,3.22-12.37,1.65-3.81,3.97-7.34,6.46-10.25,5.06-5.91,11.09-9.96,16.93-12.74,5.85-2.79,11.62-4.37,16.82-5.29,5.2-.92,9.89-1.21,13.95-1.25,4.06-.04,7.52,.16,10.33,.46,5.62,.61,8.69,1.53,8.75,2.62Z" fill="#0d0d0d"/><path d="M513.69,7.66c.19,.51-.89,1.53-3,2.95-2.02,1.6-5.12,3.6-8.53,6.82-3.41,3.17-7.27,7.38-10.57,12.96-3.33,5.52-6.16,12.41-7.13,20.21-1.07,7.75,.09,16.45,3.79,24.83,3.67,8.35,9.98,16.34,18.4,21.77,1.08,.62,2.15,1.29,3.26,1.88,1.15,.53,2.22,1.12,3.44,1.63,2.42,1.02,5.2,1.98,8.25,3.18,3.04,1.2,6.39,2.67,9.7,4.91,3.33,2.24,6.14,5.05,8.49,7.92,4.71,5.81,7.79,11.93,10.96,17.36,3.11,5.43,6.36,10.23,10.04,12.62,1.8,1.23,3.81,1.93,5.85,2.2,2.05,.27,4.28,.07,6.65-.59,4.75-1.33,9.71-4.31,14.38-7.77,1.18-.88,2.33-1.77,3.5-2.71,1.25-.99,2.49-1.98,3.73-2.97,2.53-1.98,5.15-3.96,7.96-5.81,2.8-1.85,5.79-3.57,9.04-4.99,3.25-1.41,6.79-2.5,10.52-2.95l1.39-.16,1.41-.05,1.41-.04c.47,0,.94,.05,1.41,.07,1.88,.07,3.74,.39,5.4,.76,3.35,.77,6.08,1.78,8.48,2.5,2.39,.73,4.39,1.17,6.02,1.18,1.61,0,3.12-.31,4.63-1.04,3.03-1.42,5.85-4.45,7.91-7.87,1.04-1.71,1.93-3.53,2.66-5.38,.7-1.79,1.31-3.86,1.86-5.86,1.09-4.03,1.98-8.18,3.07-12.17,1.09-4,2.41-7.88,4.19-11.37,.42-.88,.92-1.71,1.39-2.54,.56-.83,1.04-1.69,1.65-2.42,.29-.37,.58-.74,.87-1.11,.29-.36,.61-.68,.92-1.02,.59-.68,1.24-1.28,1.88-1.86,2.55-2.3,5.25-3.93,7.86-4.98,2.61-1.06,5.14-1.51,7.33-1.53,.55,.02,1.07,.03,1.57,.05,.5,.08,.98,.16,1.44,.23,.23,.04,.45,.07,.66,.12,.21,.07,.42,.13,.62,.19,.39,.13,.76,.26,1.11,.38,1.35,.61,2.27,1.22,2.78,1.8,.52,.55,.7,.93,.56,1.17-.14,.24-.58,.33-1.25,.3-.66-.07-1.62-.11-2.77-.14-.29,.01-.6,.03-.92,.05-.16,0-.32,0-.49,.01-.17,.03-.34,.05-.51,.08-.34,.05-.7,.1-1.08,.15-.37,.09-.75,.19-1.15,.3-1.57,.45-3.31,1.19-5.1,2.36-1.78,1.16-3.61,2.75-5.24,4.75-.4,.5-.82,1.01-1.18,1.57-.18,.28-.39,.54-.56,.83-.17,.29-.34,.58-.51,.88-.37,.57-.6,1.22-.92,1.83-.27,.68-.58,1.38-.83,2.12-1.06,2.92-1.82,6.26-2.46,10-.64,3.75-1.14,7.89-1.98,12.45-.44,2.3-.91,4.61-1.69,7.19-.78,2.51-1.78,5.03-3.07,7.52-1.29,2.49-2.87,4.95-4.89,7.29-2.01,2.33-4.49,4.55-7.57,6.26-3.05,1.72-6.75,2.81-10.49,2.98-1.85,.07-3.66-.06-5.33-.32-1.67-.26-3.23-.61-4.7-.99-2.91-.75-5.49-1.55-7.7-1.95-1.12-.2-2.09-.32-3.09-.31-.25,0-.5-.03-.75-.02l-.76,.06-.76,.05-.77,.13c-4.1,.63-8.54,2.86-13.03,6.01-2.25,1.57-4.52,3.34-6.84,5.25-1.18,.98-2.36,1.96-3.55,2.94-1.26,1.05-2.58,2.11-3.93,3.15-2.71,2.08-5.61,4.09-8.8,5.92-3.19,1.82-6.69,3.47-10.63,4.62-3.92,1.14-8.37,1.7-12.91,1.13-4.53-.56-8.98-2.19-12.74-4.75-1.87-1.26-3.57-2.68-5.06-4.18-1.48-1.5-2.79-3.05-3.97-4.6-2.33-3.11-4.19-6.22-5.87-9.18-3.34-5.9-6.13-11.37-9.38-15.47-1.62-2.05-3.3-3.74-5.1-5.02-1.82-1.3-4.1-2.43-6.7-3.53-2.6-1.11-5.5-2.19-8.54-3.57-1.52-.69-3.04-1.55-4.53-2.32-1.46-.84-2.86-1.77-4.27-2.66-10.94-7.63-18.41-18.19-22.48-28.99-4.1-10.82-4.78-22.1-2.65-31.67,2.01-9.6,6.26-17.43,10.89-23.37,4.62-5.99,9.72-10.1,14.15-12.85,4.43-2.8,8.32-4.06,10.91-4.8,2.69-.54,4.14-.55,4.32-.04Z" fill="#0d0d0d"/><path d="M628.78,126.85c.34-.43,1.02-.61,1.93-.6,.46-.01,.94,.09,1.54,.11,.59,.04,1.23,.11,1.91,.22,.72,.03,1.47,.12,2.28,.18,.84-.02,1.67,.11,2.61,.03,1.83,0,3.89-.27,6.02-.79,2.13-.53,4.36-1.37,6.42-2.61,2.06-1.24,3.91-2.87,5.28-4.82,1.42-2.03,2.62-4.59,3.51-7.75,.91-3.16,1.58-6.87,2.35-10.99,.77-4.11,1.66-8.52,3.21-12.88,.2-.55,.39-1.09,.59-1.63,.24-.54,.47-1.09,.7-1.62,.44-1.07,1.02-2.13,1.58-3.17,.52-1.04,1.27-2.05,1.92-3.04,.32-.51,.69-.97,1.07-1.42,.38-.45,.75-.9,1.12-1.34,3.07-3.46,6.62-5.97,10.14-7.71,3.53-1.74,7.03-2.72,10.25-3.19,3.22-.49,6.19-.3,8.69,.03,1.26,.27,2.41,.46,3.44,.83,1.03,.37,1.96,.67,2.74,1.1,.79,.42,1.47,.82,2.03,1.21,.55,.42,.98,.85,1.31,1.22,.65,.76,.86,1.4,.66,1.91-.2,.51-.8,.88-1.68,1.13-.44,.13-.96,.21-1.54,.3-.59,.12-1.25,.23-1.96,.31-.71,.07-1.5,.27-2.32,.36-.82,.11-1.72,.37-2.64,.52-1.85,.51-3.89,1.02-5.99,1.97-2.1,.92-4.27,2.1-6.32,3.64-2.05,1.53-3.97,3.42-5.49,5.62-.76,1.12-1.4,2.22-1.98,3.53-.28,.67-.6,1.31-.83,2.06-.13,.36-.26,.72-.4,1.09-.11,.39-.23,.78-.34,1.17-.94,3.15-1.62,6.82-2.38,10.95-.78,4.12-1.64,8.48-3.16,12.86-1.5,4.38-3.83,8.75-7.07,12.31-3.31,3.64-7.28,6.04-11.1,7.45-3.85,1.42-7.59,1.89-10.93,1.79-3.35-.1-6.31-.73-8.74-1.71-1.23-.41-2.29-1.06-3.26-1.56-.95-.58-1.76-1.21-2.46-1.75-.67-.63-1.23-1.21-1.67-1.74-.45-.52-.73-1.09-.95-1.54-.42-.92-.43-1.59-.09-2.02Z" fill="#0d0d0d"/><path d="M501.27,96.94c-.21,.5-.95,.75-2.22,.71-.63-.03-1.42-.07-2.28-.3-.86-.22-1.85-.53-2.96-.92-1.07-.45-2.23-1.02-3.51-1.68-.6-.38-1.23-.78-1.89-1.19-.66-.42-1.34-.86-1.98-1.4-.66-.53-1.33-1.07-2.03-1.64-.66-.6-1.32-1.26-2.01-1.93-.71-.66-1.34-1.41-2-2.18-.66-.77-1.35-1.56-1.94-2.45-2.54-3.45-4.85-7.64-6.43-12.56-1.58-4.9-2.44-10.53-1.96-16.53,.48-5.99,2.27-12.06,5.26-17.73,2.96-5.68,7.15-10.78,12.01-15.16,4.88-4.39,10.23-7.84,15.7-10.44,5.46-2.62,11.11-4.39,16.36-5.5,10.61-2.25,20.13-2.26,27.9-1.78,7.79,.54,13.92,1.62,18.12,2.71,4.2,1.1,6.48,2.25,6.44,3.34-.04,1.1-2.42,2.04-6.66,2.83-4.23,.81-10.31,1.45-17.62,2.34-7.29,.93-15.83,2.1-24.6,4.73-4.42,1.32-8.74,2.98-12.99,5.22-4.25,2.22-8.37,5.02-12.05,8.34-3.68,3.32-6.8,6.98-9,10.86-2.23,3.85-3.69,7.94-4.34,11.85-.66,3.93-.52,7.89,.15,11.56,.67,3.68,1.87,7.07,3.28,10.04,.31,.77,.72,1.46,1.09,2.16,.37,.7,.72,1.39,1.15,2.01,.4,.64,.79,1.27,1.17,1.87,.42,.58,.83,1.14,1.22,1.69,.38,.57,.8,1.06,1.2,1.55,.4,.5,.78,.98,1.15,1.44,.8,.85,1.52,1.68,2.18,2.43,.7,.69,1.32,1.35,1.85,1.95,.53,.61,1.03,1.07,1.39,1.54,.73,.92,1.05,1.67,.84,2.17Z" fill="#0d0d0d"/></g><g><path d="M205.65,605.56l8.18-5.08,20.03-15.91,30.57-16.11,48.11-14.21,296.96-34.15,169.44-18.94,44.87-11.49,40.35-31.93,7.83-38.78s-100.56,20.73-101.14,20.84-281.3,47.64-281.3,47.64l-219.14,53.72-81.51,31.97,16.74,32.43Z" fill="#0d0d0d"/><polygon points="727.21 77.95 737.19 76.73 772 71.98 808.3 83.44 821.3 106.66 818.01 135.64 804.28 155.98 727.21 77.95" fill="#0d0d0d"/><path d="M185.26,577.23s63.24,82.47,79.91,89.41l-5.51,5.38-21.46,7.22-39.02,3.22-39.96-16.32-15.05-28.44,4.51-31.48,22.83-20.39,13.74-8.62Z" fill="#0d0d0d"/><rect x="128.71" y="309.37" width="12" height="44.89" transform="translate(36.98 -12.71) rotate(6.26)" fill="#0d0d0d"/><rect x="171.8" y="557.1" width="107.31" height="28.98" transform="translate(-188.14 117.19) rotate(-20.78)" fill="#0d0d0d"/></g></svg>